<?xml version="1.0" encoding="iso-8859-1"?>
<!-- Generator: Adobe Illustrator 17.0.0, SVG Export Plug-In . SVG Version: 6.00 Build 0)  -->
<!DOCTYPE svg PUBLIC "-//W3C//DTD SVG 1.1//EN" "http://www.w3.org/Graphics/SVG/1.1/DTD/svg11.dtd">
<svg xmlns="http://www.w3.org/2000/svg" xmlns:xlink="http://www.w3.org/1999/xlink" version="1.1" x="0px" y="0px" width="62.982px" height="18px" viewBox="0 0 62.982 18" style="enable-background:new 0 0 62.982 18;" xml:space="preserve">

<g id="Layer_6">
	<g id="Layer_10">
		<g id="Green">
			
				<linearGradient id="SVGID_1_" gradientUnits="userSpaceOnUse" x1="1180.1536" y1="3340.9453" x2="1180.1536" y2="3322.9453" gradientTransform="matrix(1 0 0 1 -1133.5879 -3322.9453)">
				<stop offset="0" style="stop-color:#23630A"/>
				<stop offset="0.1" style="stop-color:#31B70E"/>
				<stop offset="0.96" style="stop-color:#4AD115"/>
				<stop offset="1" style="stop-color:#9DED7D"/>
			</linearGradient>
			<path style="fill:url(#SVGID_1_);" d="M30.149,18h29.833c1.657,0,3-1.343,3-3V3c0-1.657-1.343-3-3-3H30.149V18z"/>
		</g>
		<g>
			<g style="opacity:0.3;">
				<text transform="matrix(1 0 0 1 39.0633 12.5693)" style="">low</text>
			</g>
			<g>
				<text transform="matrix(1 0 0 1 39.0633 11.5693)" style="fill:#FFFFFF; ">low</text>
			</g>
		</g>
		
			<linearGradient id="SVGID_2_" gradientUnits="userSpaceOnUse" x1="1148.641" y1="3340.8203" x2="1148.641" y2="3322.9414" gradientTransform="matrix(1 0 0 1 -1133.5879 -3322.9453)">
			<stop offset="0" style="stop-color:#2E2E2E"/>
			<stop offset="0.1" style="stop-color:#3F3F3F"/>
			<stop offset="0.96" style="stop-color:#5A5A5A"/>
			<stop offset="1" style="stop-color:#AAAAAA"/>
		</linearGradient>
		<path style="fill:url(#SVGID_2_);" d="M30.149,18H2.957c-1.657,0-3-1.343-3-3V3c0-1.657,1.343-3,3-3h27.192V18z"/>
		<g id="sidekick">
			<g style="opacity:0.3;">
				<text transform="matrix(1 0 0 1 4.7686 12.5692)" style="">debt</text>
			</g>
			<g>
				<text transform="matrix(1 0 0 1 4.7686 11.5692)" style="fill:#FFFFFF; ">debt</text>
			</g>
		</g>
	</g>
</g>
<g id="Layer_1">
</g>

<style>text{font-family:"Helvetica Neue", Helvetica, Arial, sans-serif;font-size:10px;fill:#fff}</style>
  </svg>
